<svg width="613" height="126" viewBox="0 0 613 126" fill="none" xmlns="http://www.w3.org/2000/svg">
<path d="M4.8 33H36.8C42.0267 33 45.8667 34.2 48.32 36.6C50.7733 38.9467 52 42.5467 52 47.4C52 50.6 51.3067 53.2133 49.92 55.24C48.5333 57.2133 46.8267 58.6 44.8 59.4C49.12 60.5733 52.0533 63.4533 53.6 68.04C54.1333 69.6933 54.4 71.6133 54.4 73.8C54.4 79.0267 53.1733 82.8667 50.72 85.32C48.2667 87.7733 44.4267 89 39.2 89H4.8V33ZM40 71.4C40 68.2 38.4 66.6 35.2 66.6H19.2V77.8H35.2C38.4 77.8 40 76.2 40 73V71.4ZM37.6 49C37.6 45.8 36 44.2 32.8 44.2H19.2V55.4H32.8C36 55.4 37.6 53.8 37.6 50.6V49ZM87.9969 89H59.1969V77.8H66.3969V44.2H59.1969V33H87.9969V44.2H80.7969V77.8H87.9969V89ZM109.591 89H95.1906V33H109.591V55H116.791L129.271 33H144.471L128.791 60.6L144.391 89H129.191L116.791 66.2H109.591V89ZM193.653 89H149.253V33H193.653V44.2H163.653V55H187.253V66.2H163.653V77.8H193.653V89Z" fill="white"/>
<path d="M356.913 89H341.713L322.513 55.4V89H308.113V33H323.312L342.513 66.6V33H356.913V89ZM376.55 89H360.95L382.15 33H398.15L419.35 89H403.75L400.15 79H380.15L376.55 89ZM383.75 68.6H396.55L390.15 49.8L383.75 68.6ZM444.922 89H430.522V44.2H413.722V33H461.722V44.2H444.922V89ZM493.731 89H464.931V77.8H472.131V44.2H464.931V33H493.731V44.2H486.531V77.8H493.731V89ZM536.925 48.2C536.925 45 535.325 43.4 532.125 43.4H518.525C515.325 43.4 513.725 45 513.725 48.2V73.8C513.725 77 515.325 78.6 518.525 78.6H532.125C535.325 78.6 536.925 77 536.925 73.8V48.2ZM551.325 73.8C551.325 79.4 550.045 83.48 547.485 86.04C544.978 88.5467 540.925 89.8 535.325 89.8H515.325C509.725 89.8 505.645 88.5467 503.085 86.04C500.578 83.48 499.325 79.4 499.325 73.8V48.2C499.325 42.6 500.578 38.5467 503.085 36.04C505.645 33.48 509.725 32.2 515.325 32.2H535.325C540.925 32.2 544.978 33.48 547.485 36.04C550.045 38.5467 551.325 42.6 551.325 48.2V73.8ZM608.163 89H592.963L573.763 55.4V89H559.363V33H574.562L593.763 66.6V33H608.163V89Z" fill="white"/>
<path d="M246.31 29.132L244.83 32.0591L225.056 29.6813C221.713 29.2907 218.467 31.0114 216.951 34.01L212.259 43.2912L219.398 46.9008L224.09 37.6195L241.004 39.6269L232.323 56.7972L228.104 56.2775L230.107 52.3151L222.968 48.7056L213.944 66.5541L221.083 70.1636L224.242 63.9166L245.375 66.4437L244.166 68.8354C235.411 66.3814 226.146 70.0788 221.53 78.2334C215.977 87.9759 219.873 100.927 229.868 105.98C239.863 111.034 251.687 107.151 256.74 97.1556C261.18 88.3741 258.739 78.2203 251.305 72.4449L258.885 57.4522C267.64 59.9062 276.905 56.2087 281.52 48.0541C287.038 38.2936 283.178 25.3607 273.147 20.2893C263.188 15.254 251.364 19.1368 246.31 29.132ZM247.551 79.8699C251.006 83.4094 252.001 88.7983 249.601 93.546C246.569 99.5431 239.475 101.873 233.478 98.8408C227.481 95.8088 225.151 88.7145 228.183 82.7174C230.583 77.9697 235.513 75.5766 240.412 76.2603L235.322 86.3269L242.462 89.9365L247.551 79.8699ZM251.746 53.8426L249.219 58.8402L240.762 57.8365L246.231 47.0203C247.507 49.6378 249.321 51.9893 251.746 53.8426ZM274.868 43.5702C271.836 49.5673 264.742 51.897 258.744 48.865C255.425 47.1865 253.309 44.2791 252.501 41.0019L263.657 42.3396L264.623 34.4013L253.341 33.0451C253.377 32.9737 253.396 32.8486 253.45 32.7415C256.482 26.7444 263.576 24.4147 269.573 27.4467C275.57 30.4788 277.9 37.5731 274.868 43.5702Z" fill="white"/>
<path d="M278.278 81.1517L271.059 95.4305L292.597 79.4266L285.457 75.8171L292.677 61.5382L271.139 77.5421L278.278 81.1517Z" fill="white"/>
</svg>
