<svg width="212" height="126" viewBox="0 0 212 126" fill="none" xmlns="http://www.w3.org/2000/svg">
<path d="M4.8 33H36.8C42.0267 33 45.8667 34.2 48.32 36.6C50.7733 38.9467 52 42.5467 52 47.4C52 50.6 51.3067 53.2133 49.92 55.24C48.5333 57.2133 46.8267 58.6 44.8 59.4C49.12 60.5733 52.0533 63.4533 53.6 68.04C54.1333 69.6933 54.4 71.6133 54.4 73.8C54.4 79.0267 53.1733 82.8667 50.72 85.32C48.2667 87.7733 44.4267 89 39.2 89H4.8V33ZM40 71.4C40 68.2 38.4 66.6 35.2 66.6H19.2V77.8H35.2C38.4 77.8 40 76.2 40 73V71.4ZM37.6 49C37.6 45.8 36 44.2 32.8 44.2H19.2V55.4H32.8C36 55.4 37.6 53.8 37.6 50.6V49Z" fill="white"/>
<path d="M207.163 89H191.963L172.763 55.4V89H158.363V33H173.562L192.763 66.6V33H207.163V89Z" fill="white"/>
<path d="M98.709 28.6772L97.2291 31.6043L77.4547 29.2265C74.1113 28.8359 70.8658 30.5566 69.3497 33.5552L64.6573 42.8364L71.7967 46.446L76.4892 37.1647L93.4029 39.1721L84.722 56.3424L80.5025 55.8227L82.5058 51.8603L75.3664 48.2507L66.3425 66.0993L73.482 69.7088L76.6403 63.4618L97.7735 65.9889L96.5643 68.3806C87.8098 65.9266 78.5448 69.624 73.929 77.7786C68.3759 87.5211 72.2716 100.472 82.2667 105.525C92.2619 110.579 104.086 106.696 109.139 96.7008C113.579 87.9193 111.138 77.7655 103.704 71.9901L111.284 56.9974C120.038 59.4513 129.303 55.7539 133.919 47.5993C139.437 37.8388 135.577 24.9059 125.546 19.8345C115.586 14.7992 103.762 18.682 98.709 28.6772ZM99.9498 79.4151C103.404 82.9546 104.4 88.3435 102 93.0912C98.9677 99.0883 91.8734 101.418 85.8763 98.386C79.8792 95.354 77.5495 88.2597 80.5815 82.2626C82.9819 77.5148 87.9119 75.1218 92.8104 75.8055L87.7209 85.8721L94.8603 89.4817L99.9498 79.4151ZM104.144 53.3878L101.618 58.3854L93.1608 57.3817L98.6293 46.5655C99.9056 49.183 101.72 51.5345 104.144 53.3878ZM127.267 43.1154C124.235 49.1125 117.14 51.4422 111.143 48.4102C107.823 46.7317 105.708 43.8243 104.899 40.5471L116.056 41.8848L117.021 33.9465L105.74 32.5903C105.776 32.5189 105.794 32.3938 105.848 32.2867C108.88 26.2896 115.975 23.9599 121.972 26.9919C127.969 30.024 130.299 37.1183 127.267 43.1154Z" fill="white"/>
<path d="M130.677 80.6969L123.458 94.9757L144.996 78.9718L137.856 75.3623L145.075 61.0835L123.537 77.0873L130.677 80.6969Z" fill="white"/>
</svg>
